<?xml version="1.0" encoding="iso-8859-1"?>
<!-- Generator: Adobe Illustrator 19.0.0, SVG Export Plug-In . SVG Version: 6.00 Build 0)  -->
<svg version="1.1" id="Layer_1" xmlns="http://www.w3.org/2000/svg" xmlns:xlink="http://www.w3.org/1999/xlink" x="0px" y="0px"
	 viewBox="0 0 512 512" style="enable-background:new 0 0 512 512;" xml:space="preserve">
<g>
	<g>
		<g>
			<path d="M256,0C114.842,0,0,114.84,0,256s114.842,256,256,256s256-114.84,256-256S397.158,0,256,0z M256,474.537
				c-120.501,0-218.537-98.036-218.537-218.537S135.499,37.463,256,37.463S474.537,135.499,474.537,256S376.501,474.537,256,474.537
				z"/>
			<path d="M436.42,237.268h-25.45c-8.547-71.131-65.111-127.694-136.242-136.238V75.577c0-10.345-8.387-18.732-18.732-18.732
				s-18.732,8.387-18.732,18.732v25.454c-71.127,8.547-127.689,65.109-136.234,136.237H75.574c-10.345,0-18.732,8.387-18.732,18.732
				s8.387,18.732,18.732,18.732h25.456c8.545,71.128,65.108,127.69,136.234,136.237v25.454c0,10.345,8.387,18.732,18.732,18.732
				s18.732-8.387,18.732-18.732V410.97c71.131-8.544,127.695-65.109,136.242-136.238h25.45c10.345,0,18.732-8.387,18.732-18.732
				C455.152,245.655,446.765,237.268,436.42,237.268z M350.305,274.732h22.845c-8.036,50.443-47.979,90.384-98.423,98.419v-22.843
				c0-10.345-8.387-18.732-18.732-18.732c-10.345,0-18.732,8.387-18.732,18.732v22.841c-50.441-8.037-90.379-47.977-98.415-98.418
				h22.838c10.345,0,18.732-8.387,18.732-18.732c0-10.345-8.387-18.732-18.732-18.732h-22.838
				c8.036-50.441,47.974-90.38,98.415-98.418v22.841c0,10.345,8.387,18.732,18.732,18.732c10.345,0,18.732-8.387,18.732-18.732
				v-22.843c50.443,8.035,90.387,47.976,98.423,98.419h-22.845c-10.345,0-18.732,8.387-18.732,18.732
				C331.574,266.345,339.961,274.732,350.305,274.732z"/>
		</g>
	</g>
</g>
<g>
</g>
<g>
</g>
<g>
</g>
<g>
</g>
<g>
</g>
<g>
</g>
<g>
</g>
<g>
</g>
<g>
</g>
<g>
</g>
<g>
</g>
<g>
</g>
<g>
</g>
<g>
</g>
<g>
</g>
</svg>
